<svg xmlns="http://www.w3.org/2000/svg" xmlns:xlink="http://www.w3.org/1999/xlink" width="200" height="200" class="icon" p-id="2511" t="1493901643639" version="1.1" viewBox="0 0 1024 1024"><defs><style type="text/css"/></defs><path d="M517.12 191.136c-106.048 0-192 85.952-192 192s85.952 192 192 192 192-85.952 192-192-85.952-192-192-192zM517.12 522.24c-88.128 0-139.104-50.976-139.104-139.104s50.976-139.104 139.104-139.104c88.16 0 139.104 50.976 139.104 139.104s-50.944 139.104-139.104 139.104z" p-id="2512"/><path d="M277.504 854.176c-0.192-4.192-0.672-8.32-0.672-12.544 0-145.024 107.968-262.624 241.12-262.624 133.216 0 241.152 117.6 241.152 262.624 0 4.192-0.48 8.352-0.672 12.544l49.056 0c0.16-4.192 0.576-8.32 0.576-12.544 0-174.496-129.92-316-290.144-316s-290.112 141.44-290.112 316c0 4.224 0.416 8.32 0.576 12.544l49.12 0z" p-id="2513"/></svg>